# xmcd CD database file
#
# Track frame offsets:
#	150
#	20445
#	49075
#	84347
#	112230
#	141455
#	166194
#	189645
#	223540
#
# Disc length: 3504 seconds
#
# Revision: 0
# Processed by: cddbd v1.5.1PL0 Copyright (c) Steve Scherf et al.
# Submitted via: CDex 1.51
#
DISCID=7d0dae09
DTITLE=Moore, Clay - Meeting Standards
DYEAR=1998
DGENRE=Jazz
TTITLE0=Sweet Georgia Bright
TTITLE1=Sadow of Your Smile
TTITLE2=You Stepped Out of a Dream
TTITLE3=Song for my Father
TTITLE4=Soul Eyes
TTITLE5=Rocky and Bullwinkle
TTITLE6=Relaxin' at Camarillo
TTITLE7=Morning Star
TTITLE8=Hot House
EXTD=YEAR: 1998
EXTT0=
EXTT1=
EXTT2=
EXTT3=
EXTT4=
EXTT5=
EXTT6=
EXTT7=
EXTT8=
PLAYORDER=
